<svg id="visual" viewBox="0 0 900 600" width="900" height="600" xmlns="http://www.w3.org/2000/svg" xmlns:xlink="http://www.w3.org/1999/xlink" version="1.1"><path d="M0 116L12.5 116C25 116 50 116 75 116.8C100 117.7 125 119.3 150 115.3C175 111.3 200 101.7 225 104.5C250 107.3 275 122.7 300 134.5C325 146.3 350 154.7 375 146.3C400 138 425 113 450 108.3C475 103.7 500 119.3 525 118.8C550 118.3 575 101.7 600 97.8C625 94 650 103 675 111.2C700 119.3 725 126.7 750 124.2C775 121.7 800 109.3 825 109C850 108.7 875 120.3 887.5 126.2L900 132L900 0L887.5 0C875 0 850 0 825 0C800 0 775 0 750 0C725 0 700 0 675 0C650 0 625 0 600 0C575 0 550 0 525 0C500 0 475 0 450 0C425 0 400 0 375 0C350 0 325 0 300 0C275 0 250 0 225 0C200 0 175 0 150 0C125 0 100 0 75 0C50 0 25 0 12.5 0L0 0Z" fill="#c0dbe0"></path><path d="M0 91L12.5 88.7C25 86.3 50 81.7 75 89.7C100 97.7 125 118.3 150 122.5C175 126.7 200 114.3 225 107.3C250 100.3 275 98.7 300 98C325 97.3 350 97.7 375 103C400 108.3 425 118.7 450 124.3C475 130 500 131 525 126.3C550 121.7 575 111.3 600 106.7C625 102 650 103 675 105.2C700 107.3 725 110.7 750 111.8C775 113 800 112 825 106.7C850 101.3 875 91.7 887.5 86.8L900 82L900 0L887.5 0C875 0 850 0 825 0C800 0 775 0 750 0C725 0 700 0 675 0C650 0 625 0 600 0C575 0 550 0 525 0C500 0 475 0 450 0C425 0 400 0 375 0C350 0 325 0 300 0C275 0 250 0 225 0C200 0 175 0 150 0C125 0 100 0 75 0C50 0 25 0 12.5 0L0 0Z" fill="#aacfdd"></path><path d="M0 106L12.5 105.8C25 105.7 50 105.3 75 104.5C100 103.7 125 102.3 150 101.3C175 100.3 200 99.7 225 94.5C250 89.3 275 79.7 300 72.3C325 65 350 60 375 60.3C400 60.7 425 66.3 450 66.8C475 67.3 500 62.7 525 64.3C550 66 575 74 600 79C625 84 650 86 675 81.2C700 76.3 725 64.7 750 64.3C775 64 800 75 825 81.3C850 87.7 875 89.3 887.5 90.2L900 91L900 0L887.5 0C875 0 850 0 825 0C800 0 775 0 750 0C725 0 700 0 675 0C650 0 625 0 600 0C575 0 550 0 525 0C500 0 475 0 450 0C425 0 400 0 375 0C350 0 325 0 300 0C275 0 250 0 225 0C200 0 175 0 150 0C125 0 100 0 75 0C50 0 25 0 12.5 0L0 0Z" fill="#99c2dc"></path><path d="M0 40L12.5 46.7C25 53.3 50 66.7 75 65.3C100 64 125 48 150 47.8C175 47.7 200 63.3 225 66C250 68.7 275 58.3 300 56.7C325 55 350 62 375 63.2C400 64.3 425 59.7 450 60.5C475 61.3 500 67.7 525 68.5C550 69.3 575 64.7 600 57.7C625 50.7 650 41.3 675 43.3C700 45.3 725 58.7 750 64.5C775 70.3 800 68.7 825 69.8C850 71 875 75 887.5 77L900 79L900 0L887.5 0C875 0 850 0 825 0C800 0 775 0 750 0C725 0 700 0 675 0C650 0 625 0 600 0C575 0 550 0 525 0C500 0 475 0 450 0C425 0 400 0 375 0C350 0 325 0 300 0C275 0 250 0 225 0C200 0 175 0 150 0C125 0 100 0 75 0C50 0 25 0 12.5 0L0 0Z" fill="#8fb4da"></path><path d="M0 16L12.5 21C25 26 50 36 75 36.2C100 36.3 125 26.7 150 24.7C175 22.7 200 28.3 225 28.5C250 28.7 275 23.3 300 25.7C325 28 350 38 375 38.7C400 39.3 425 30.7 450 28.2C475 25.7 500 29.3 525 29.8C550 30.3 575 27.7 600 30.7C625 33.7 650 42.3 675 41.8C700 41.3 725 31.7 750 25.8C775 20 800 18 825 20.7C850 23.3 875 30.7 887.5 34.3L900 38L900 0L887.5 0C875 0 850 0 825 0C800 0 775 0 750 0C725 0 700 0 675 0C650 0 625 0 600 0C575 0 550 0 525 0C500 0 475 0 450 0C425 0 400 0 375 0C350 0 325 0 300 0C275 0 250 0 225 0C200 0 175 0 150 0C125 0 100 0 75 0C50 0 25 0 12.5 0L0 0Z" fill="#8ca4d5"></path></svg>